<svg version="1.1" xmlns="http://www.w3.org/2000/svg" xmlns:xlink="http://www.w3.org/1999/xlink" width="191.50356" height="161.928" viewBox="0,0,191.50356,161.928"><g transform="translate(-142.39059,-83.036)"><g data-paper-data="{&quot;isPaintingLayer&quot;:true}" fill-rule="nonzero" stroke-linecap="butt" stroke-linejoin="miter" stroke-miterlimit="10" stroke-dasharray="" stroke-dashoffset="0" style="mix-blend-mode: normal"><g data-paper-data="{&quot;index&quot;:null}" stroke-width="1"><path d="M142.93929,144.81125c13.54235,-30.42375 55.34805,-49.61444 87.24671,-40.05012l45.44099,-20.85944c2.00771,-0.92163 4.38241,-0.04118 5.30403,1.96653l16.68755,36.3528c0.92163,2.00771 0.04118,4.38241 -1.96653,5.30403l-89.06434,40.8845c-1.81764,0.83438 -2.30927,2.16038 -2.8009,3.48639l-1.96652,5.30403c-0.49163,1.32601 -0.98326,2.65202 -2.8009,3.4864l-10.90583,5.00626c-1.81764,0.83438 -3.14365,0.34274 -4.46966,-0.14889l-5.30403,-1.96652c-1.32601,-0.49163 -2.65202,-0.98327 -4.46966,-0.14889l-7.27056,3.33751c-2.00771,0.92163 -4.38241,0.04119 -5.30403,-1.96652z" fill="#ffbf00" stroke="#cc9900"/><path d="M169.86386,205.77902c-0.92163,-2.00771 -0.04119,-4.38241 1.96652,-5.30403l7.27056,-3.33751c1.81764,-0.83438 3.14365,-0.34275 4.46966,0.14888l5.30403,1.96653c1.32601,0.49163 2.65201,0.98326 4.46965,0.14888l10.90584,-5.00626c1.81764,-0.83438 2.30927,-2.16039 2.8009,-3.4864l1.96653,-5.30403c0.49163,-1.32601 0.98326,-2.65201 2.8009,-3.48639l80.88497,-37.1298c2.00771,-0.92163 4.38241,-0.04119 5.30403,1.96652l16.68755,36.35279c0.92163,2.00771 0.04118,4.38241 -1.96652,5.30403l-80.88497,37.1298c-1.81764,0.83438 -2.30927,2.16038 -2.8009,3.48639l-1.96653,5.30403c-0.49163,1.32601 -0.98326,2.65201 -2.8009,3.48639l-10.90584,5.00627c-1.81764,0.83438 -3.14364,0.34274 -4.46965,-0.14889l-5.30403,-1.96652c-1.32601,-0.49163 -2.65202,-0.98327 -4.46966,-0.14889l-7.27056,3.33751c-2.00771,0.92163 -4.38241,0.04119 -5.30403,-1.96652z" fill="#0fbd8c" stroke="#0b8e69"/></g><g data-paper-data="{&quot;index&quot;:null}" fill="#252525"><path d="M227.17193,195.46743c0,-4.50614 0,-10.68341 0,-13.12047c0,-1.99004 1.90718,-4.4583 4.27048,-4.4583c10.03393,0 79.6104,0 97.6746,0c2.72444,0 4.27714,2.32427 4.27714,4.23402c0,2.63533 0,9.85631 0,14.46616c0,2.37831 -2.13439,4.0616 -4.7257,4.0616c-10.32285,0 -77.8926,0 -96.66534,0c-3.06669,0 -4.83118,-2.23352 -4.83118,-5.18301z" stroke="#141414" stroke-width="1"/><path d="M274.08516,136.15844c4.50614,0 10.68341,0 13.12047,0c1.99004,0 4.4583,1.90718 4.4583,4.27048c0,10.03393 0,79.6104 0,97.6746c0,2.72444 -2.32427,4.27714 -4.23402,4.27714c-2.63533,0 -9.85631,0 -14.46616,0c-2.37831,0 -4.0616,-2.13439 -4.0616,-4.7257c0,-10.32285 0,-77.8926 0,-96.66534c0,-3.06669 2.23352,-4.83118 5.18301,-4.83118z" stroke="#141414" stroke-width="1"/><path d="M268.05303,200.00389v-21.45193h24.21378v21.45193z" stroke="#000000" stroke-width="0"/></g></g></g></svg>